<?xml version="1.0" encoding="iso-8859-1"?>
<!-- Uploaded to: SVG Repo, www.svgrepo.com, Generator: SVG Repo Mixer Tools -->
<svg version="1.1" id="Layer_1" xmlns="http://www.w3.org/2000/svg" xmlns:xlink="http://www.w3.org/1999/xlink" 
	 viewBox="0 0 512 512" xml:space="preserve">
<polygon style="fill:#E26142;" points="478.242,22.505 455.736,466.989 512,444.484 512,22.505 "/>
<polygon style="fill:#F1866D;" points="0,22.505 0,444.484 478.242,478.242 478.242,22.505 "/>
<polygon style="fill:#164370;" points="33.758,56.264 33.758,90.022 444.484,410.725 478.242,410.725 478.242,56.264 "/>
<rect x="33.758" y="90.022" style="fill:#276AAD;" width="410.725" height="320.703"/>
<polygon style="fill:#95341D;" points="478.242,444.484 455.736,466.989 478.242,489.495 512,489.495 512,444.484 "/>
<rect y="444.484" style="fill:#E26142;" width="478.242" height="45.011"/>
<g>
	<path style="fill:#FFFFFF;" d="M419.165,286.945c-10.048,0-18.776-2.02-26.576-5.525v-95.851
		c7.799-3.505,16.529-5.525,26.576-5.525c4.662,0,8.44-3.778,8.44-8.44s-3.778-8.44-8.44-8.44c-41.762,0-64.352,26.71-84.396,55.433
		c-20.043-28.724-42.633-55.433-84.396-55.433c-4.662,0-8.44,3.778-8.44,8.44s3.778,8.44,8.44,8.44
		c10.048,0,18.776,2.02,26.576,5.525v95.851c-7.799,3.505-16.529,5.525-26.576,5.525c-4.662,0-8.44,3.778-8.44,8.44
		c0,4.662,3.778,8.44,8.44,8.44c41.762,0,64.352-26.71,84.396-55.433c20.043,28.724,42.633,55.433,84.396,55.433
		c4.662,0,8.44-3.778,8.44-8.44C427.604,290.723,423.827,286.945,419.165,286.945z M293.828,270.585v-74.18
		c11.581,9.834,21.143,23.118,30.72,37.09C314.971,247.467,305.41,260.751,293.828,270.585z M344.99,233.495
		c9.577-13.973,19.139-27.256,30.72-37.09v74.18C364.129,260.751,354.567,247.467,344.99,233.495z"/>
	<path style="fill:#FFFFFF;" d="M205.363,196.923H92.835c-4.662,0-8.44-3.778-8.44-8.44s3.778-8.44,8.44-8.44h112.527
		c4.662,0,8.44,3.778,8.44,8.44S210.025,196.923,205.363,196.923z"/>
	<path style="fill:#FFFFFF;" d="M205.363,241.934H92.835c-4.662,0-8.44-3.778-8.44-8.44s3.778-8.44,8.44-8.44h112.527
		c4.662,0,8.44,3.778,8.44,8.44S210.025,241.934,205.363,241.934z"/>
	<path style="fill:#FFFFFF;" d="M205.363,286.945H92.835c-4.662,0-8.44-3.778-8.44-8.44c0-4.662,3.778-8.44,8.44-8.44h112.527
		c4.662,0,8.44,3.778,8.44,8.44C213.802,283.168,210.025,286.945,205.363,286.945z"/>
</g>
</svg>